<mxfile host="Electron" modified="2024-05-20T07:05:58.754Z" agent="Mozilla/5.0 (Macintosh; Intel Mac OS X 10_15_7) AppleWebKit/537.36 (KHTML, like Gecko) draw.io/24.4.0 Chrome/120.0.6099.109 Electron/28.1.0 Safari/537.36" etag="CkZCotYk7Te28U43LyuY" version="24.4.0" type="device">
  <diagram name="Page-1" id="wmM0MHeouTX-nWKgQQLS">
    <mxGraphModel dx="1461" dy="2167" grid="1" gridSize="10" guides="1" tooltips="1" connect="1" arrows="1" fold="1" page="1" pageScale="1" pageWidth="850" pageHeight="1100" background="none" math="0" shadow="0">
      <root>
        <mxCell id="0" />
        <mxCell id="1" parent="0" />
        <mxCell id="u54jU0PMI1pxLwhqkPNv-40" style="edgeStyle=orthogonalEdgeStyle;rounded=0;orthogonalLoop=1;jettySize=auto;html=1;exitX=1.001;exitY=0.698;exitDx=0;exitDy=0;entryX=0.25;entryY=1;entryDx=0;entryDy=0;exitPerimeter=0;endArrow=none;endFill=0;" edge="1" parent="1" source="tAqHpgGF29QeRpSOcUTc-36" target="SXYv1v4Vk7ZWwAZWmI2W-5">
          <mxGeometry relative="1" as="geometry" />
        </mxCell>
        <mxCell id="u54jU0PMI1pxLwhqkPNv-58" value="immU" style="edgeLabel;html=1;align=center;verticalAlign=middle;resizable=0;points=[];" vertex="1" connectable="0" parent="u54jU0PMI1pxLwhqkPNv-40">
          <mxGeometry relative="1" as="geometry">
            <mxPoint as="offset" />
          </mxGeometry>
        </mxCell>
        <mxCell id="tAqHpgGF29QeRpSOcUTc-36" value="&lt;b&gt;INSTRUCTION DECODE&lt;/b&gt;" style="rounded=0;whiteSpace=wrap;html=1;fontFamily=Helvetica;fontSize=11;fontColor=default;spacingBottom=-600;" parent="1" vertex="1">
          <mxGeometry x="880" y="-40" width="260" height="630" as="geometry" />
        </mxCell>
        <mxCell id="tAqHpgGF29QeRpSOcUTc-1" value="" style="shape=trapezoid;perimeter=trapezoidPerimeter;whiteSpace=wrap;html=1;fixedSize=1;rotation=90;" parent="1" vertex="1">
          <mxGeometry x="90" y="270" width="120" height="60" as="geometry" />
        </mxCell>
        <mxCell id="tAqHpgGF29QeRpSOcUTc-2" value="&lt;font style=&quot;font-size: 20px;&quot;&gt;0&lt;/font&gt;" style="text;html=1;align=center;verticalAlign=middle;resizable=0;points=[];autosize=1;strokeColor=none;fillColor=none;" parent="1" vertex="1">
          <mxGeometry x="135" y="300" width="30" height="40" as="geometry" />
        </mxCell>
        <mxCell id="tAqHpgGF29QeRpSOcUTc-3" value="&lt;font style=&quot;font-size: 20px;&quot;&gt;1&lt;/font&gt;" style="text;html=1;align=center;verticalAlign=middle;resizable=0;points=[];autosize=1;strokeColor=none;fillColor=none;" parent="1" vertex="1">
          <mxGeometry x="135" y="260" width="30" height="40" as="geometry" />
        </mxCell>
        <mxCell id="tAqHpgGF29QeRpSOcUTc-4" value="PC" style="rounded=0;whiteSpace=wrap;html=1;" parent="1" vertex="1">
          <mxGeometry x="300" y="240" width="70" height="120" as="geometry" />
        </mxCell>
        <mxCell id="tAqHpgGF29QeRpSOcUTc-5" value="" style="triangle;whiteSpace=wrap;html=1;rotation=90;" parent="1" vertex="1">
          <mxGeometry x="325" y="225" width="20" height="50" as="geometry" />
        </mxCell>
        <mxCell id="tAqHpgGF29QeRpSOcUTc-6" value="&amp;gt;&amp;gt; 2" style="shape=parallelogram;perimeter=parallelogramPerimeter;whiteSpace=wrap;html=1;fixedSize=1;direction=west;flipV=1;" parent="1" vertex="1">
          <mxGeometry x="440" y="275" width="120" height="60" as="geometry" />
        </mxCell>
        <mxCell id="tAqHpgGF29QeRpSOcUTc-8" value="+" style="ellipse;whiteSpace=wrap;html=1;aspect=fixed;" parent="1" vertex="1">
          <mxGeometry x="430" y="510" width="60" height="60" as="geometry" />
        </mxCell>
        <mxCell id="tAqHpgGF29QeRpSOcUTc-9" value="" style="endArrow=none;html=1;rounded=0;movable=1;resizable=1;rotatable=1;deletable=1;editable=1;locked=0;connectable=1;" parent="1" edge="1">
          <mxGeometry width="50" height="50" relative="1" as="geometry">
            <mxPoint x="180" y="300" as="sourcePoint" />
            <mxPoint x="300" y="300" as="targetPoint" />
          </mxGeometry>
        </mxCell>
        <mxCell id="tAqHpgGF29QeRpSOcUTc-10" value="" style="endArrow=none;html=1;rounded=0;movable=1;resizable=1;rotatable=1;deletable=1;editable=1;locked=0;connectable=1;" parent="1" edge="1">
          <mxGeometry width="50" height="50" relative="1" as="geometry">
            <mxPoint x="370" y="300" as="sourcePoint" />
            <mxPoint x="450" y="300" as="targetPoint" />
          </mxGeometry>
        </mxCell>
        <mxCell id="tAqHpgGF29QeRpSOcUTc-11" value="" style="endArrow=none;html=1;rounded=0;labelBackgroundColor=default;strokeColor=default;fontFamily=Helvetica;fontSize=11;fontColor=default;shape=connector;" parent="1" edge="1">
          <mxGeometry width="50" height="50" relative="1" as="geometry">
            <mxPoint x="370" y="560" as="sourcePoint" />
            <mxPoint x="440" y="560" as="targetPoint" />
          </mxGeometry>
        </mxCell>
        <mxCell id="tAqHpgGF29QeRpSOcUTc-12" value="4" style="text;html=1;align=center;verticalAlign=middle;resizable=0;points=[];autosize=1;strokeColor=none;fillColor=none;fontSize=11;fontFamily=Helvetica;fontColor=default;" parent="1" vertex="1">
          <mxGeometry x="350" y="540" width="30" height="30" as="geometry" />
        </mxCell>
        <mxCell id="tAqHpgGF29QeRpSOcUTc-13" value="" style="endArrow=none;html=1;rounded=0;labelBackgroundColor=default;strokeColor=default;fontFamily=Helvetica;fontSize=11;fontColor=default;shape=connector;" parent="1" edge="1">
          <mxGeometry width="50" height="50" relative="1" as="geometry">
            <mxPoint x="400" y="520" as="sourcePoint" />
            <mxPoint x="400" y="300" as="targetPoint" />
          </mxGeometry>
        </mxCell>
        <mxCell id="tAqHpgGF29QeRpSOcUTc-14" value="" style="endArrow=none;html=1;rounded=0;labelBackgroundColor=default;strokeColor=default;fontFamily=Helvetica;fontSize=11;fontColor=default;shape=connector;" parent="1" edge="1">
          <mxGeometry width="50" height="50" relative="1" as="geometry">
            <mxPoint x="400" y="520" as="sourcePoint" />
            <mxPoint x="440" y="520" as="targetPoint" />
          </mxGeometry>
        </mxCell>
        <mxCell id="tAqHpgGF29QeRpSOcUTc-15" value="" style="endArrow=none;html=1;rounded=0;labelBackgroundColor=default;strokeColor=default;fontFamily=Helvetica;fontSize=11;fontColor=default;shape=connector;exitX=1;exitY=0.5;exitDx=0;exitDy=0;" parent="1" edge="1" source="tAqHpgGF29QeRpSOcUTc-8">
          <mxGeometry width="50" height="50" relative="1" as="geometry">
            <mxPoint x="510" y="540" as="sourcePoint" />
            <mxPoint x="550" y="540" as="targetPoint" />
          </mxGeometry>
        </mxCell>
        <mxCell id="u54jU0PMI1pxLwhqkPNv-66" value="&lt;span style=&quot;background-color: rgb(251, 251, 251);&quot;&gt;pcPlus4&lt;/span&gt;" style="edgeLabel;html=1;align=center;verticalAlign=middle;resizable=0;points=[];" vertex="1" connectable="0" parent="tAqHpgGF29QeRpSOcUTc-15">
          <mxGeometry relative="1" as="geometry">
            <mxPoint as="offset" />
          </mxGeometry>
        </mxCell>
        <mxCell id="tAqHpgGF29QeRpSOcUTc-16" value="" style="endArrow=none;html=1;rounded=0;labelBackgroundColor=default;strokeColor=default;fontFamily=Helvetica;fontSize=11;fontColor=default;shape=connector;" parent="1" edge="1">
          <mxGeometry width="50" height="50" relative="1" as="geometry">
            <mxPoint x="80" y="319.66" as="sourcePoint" />
            <mxPoint x="120" y="319.66" as="targetPoint" />
          </mxGeometry>
        </mxCell>
        <mxCell id="tAqHpgGF29QeRpSOcUTc-17" value="" style="endArrow=none;html=1;rounded=0;labelBackgroundColor=default;strokeColor=default;fontFamily=Helvetica;fontSize=11;fontColor=default;shape=connector;" parent="1" edge="1">
          <mxGeometry width="50" height="50" relative="1" as="geometry">
            <mxPoint x="80" y="640" as="sourcePoint" />
            <mxPoint x="80" y="320" as="targetPoint" />
          </mxGeometry>
        </mxCell>
        <mxCell id="tAqHpgGF29QeRpSOcUTc-18" value="" style="endArrow=none;html=1;rounded=0;labelBackgroundColor=default;strokeColor=default;fontFamily=Helvetica;fontSize=11;fontColor=default;shape=connector;" parent="1" edge="1">
          <mxGeometry width="50" height="50" relative="1" as="geometry">
            <mxPoint x="550" y="640" as="sourcePoint" />
            <mxPoint x="550" y="540" as="targetPoint" />
          </mxGeometry>
        </mxCell>
        <mxCell id="tAqHpgGF29QeRpSOcUTc-19" value="" style="endArrow=none;html=1;rounded=0;labelBackgroundColor=default;strokeColor=default;fontFamily=Helvetica;fontSize=11;fontColor=default;shape=connector;" parent="1" edge="1">
          <mxGeometry width="50" height="50" relative="1" as="geometry">
            <mxPoint x="80" y="640" as="sourcePoint" />
            <mxPoint x="550" y="640" as="targetPoint" />
          </mxGeometry>
        </mxCell>
        <mxCell id="tAqHpgGF29QeRpSOcUTc-20" value="" style="endArrow=none;html=1;rounded=0;labelBackgroundColor=default;strokeColor=default;fontFamily=Helvetica;fontSize=11;fontColor=default;shape=connector;" parent="1" edge="1">
          <mxGeometry width="50" height="50" relative="1" as="geometry">
            <mxPoint x="400" y="480" as="sourcePoint" />
            <mxPoint x="600" y="480" as="targetPoint" />
          </mxGeometry>
        </mxCell>
        <mxCell id="tAqHpgGF29QeRpSOcUTc-21" value="" style="endArrow=none;html=1;rounded=0;labelBackgroundColor=default;strokeColor=default;fontFamily=Helvetica;fontSize=11;fontColor=default;shape=connector;" parent="1" edge="1">
          <mxGeometry width="50" height="50" relative="1" as="geometry">
            <mxPoint x="600" y="610" as="sourcePoint" />
            <mxPoint x="600" y="480" as="targetPoint" />
          </mxGeometry>
        </mxCell>
        <mxCell id="tAqHpgGF29QeRpSOcUTc-22" value="" style="endArrow=none;html=1;rounded=0;labelBackgroundColor=default;strokeColor=default;fontFamily=Helvetica;fontSize=11;fontColor=default;shape=connector;" parent="1" edge="1">
          <mxGeometry width="50" height="50" relative="1" as="geometry">
            <mxPoint x="600" y="610" as="sourcePoint" />
            <mxPoint x="1140" y="610" as="targetPoint" />
          </mxGeometry>
        </mxCell>
        <mxCell id="tAqHpgGF29QeRpSOcUTc-24" value="+" style="ellipse;whiteSpace=wrap;html=1;aspect=fixed;" parent="1" vertex="1">
          <mxGeometry x="1215" y="610" width="60" height="60" as="geometry" />
        </mxCell>
        <mxCell id="tAqHpgGF29QeRpSOcUTc-26" value="" style="endArrow=none;html=1;rounded=0;labelBackgroundColor=default;strokeColor=default;fontFamily=Helvetica;fontSize=11;fontColor=default;shape=connector;" parent="1" edge="1" source="tAqHpgGF29QeRpSOcUTc-24">
          <mxGeometry width="50" height="50" relative="1" as="geometry">
            <mxPoint x="1295" y="640" as="sourcePoint" />
            <mxPoint x="1370" y="640" as="targetPoint" />
          </mxGeometry>
        </mxCell>
        <mxCell id="u54jU0PMI1pxLwhqkPNv-65" value="&lt;span style=&quot;background-color: rgb(251, 251, 251);&quot;&gt;pcBranch&lt;/span&gt;" style="edgeLabel;html=1;align=center;verticalAlign=middle;resizable=0;points=[];" vertex="1" connectable="0" parent="tAqHpgGF29QeRpSOcUTc-26">
          <mxGeometry x="0.0915" y="2" relative="1" as="geometry">
            <mxPoint as="offset" />
          </mxGeometry>
        </mxCell>
        <mxCell id="tAqHpgGF29QeRpSOcUTc-27" value="" style="endArrow=none;html=1;rounded=0;labelBackgroundColor=default;strokeColor=default;fontFamily=Helvetica;fontSize=11;fontColor=default;shape=connector;" parent="1" edge="1">
          <mxGeometry width="50" height="50" relative="1" as="geometry">
            <mxPoint x="40" y="690" as="sourcePoint" />
            <mxPoint x="1370" y="690" as="targetPoint" />
          </mxGeometry>
        </mxCell>
        <mxCell id="tAqHpgGF29QeRpSOcUTc-28" value="" style="endArrow=none;html=1;rounded=0;labelBackgroundColor=default;strokeColor=default;fontFamily=Helvetica;fontSize=11;fontColor=default;shape=connector;" parent="1" edge="1">
          <mxGeometry width="50" height="50" relative="1" as="geometry">
            <mxPoint x="1369.69" y="690" as="sourcePoint" />
            <mxPoint x="1369.69" y="640" as="targetPoint" />
            <Array as="points">
              <mxPoint x="1369.69" y="670" />
            </Array>
          </mxGeometry>
        </mxCell>
        <mxCell id="tAqHpgGF29QeRpSOcUTc-29" value="" style="endArrow=none;html=1;rounded=0;labelBackgroundColor=default;strokeColor=default;fontFamily=Helvetica;fontSize=11;fontColor=default;shape=connector;" parent="1" edge="1">
          <mxGeometry width="50" height="50" relative="1" as="geometry">
            <mxPoint x="40" y="690" as="sourcePoint" />
            <mxPoint x="40" y="280" as="targetPoint" />
          </mxGeometry>
        </mxCell>
        <mxCell id="tAqHpgGF29QeRpSOcUTc-30" value="" style="endArrow=none;html=1;rounded=0;labelBackgroundColor=default;strokeColor=default;fontFamily=Helvetica;fontSize=11;fontColor=default;shape=connector;" parent="1" edge="1">
          <mxGeometry width="50" height="50" relative="1" as="geometry">
            <mxPoint x="40" y="280" as="sourcePoint" />
            <mxPoint x="120" y="280" as="targetPoint" />
          </mxGeometry>
        </mxCell>
        <mxCell id="tAqHpgGF29QeRpSOcUTc-32" value="&lt;b&gt;INSTRUCTION MEMORY&lt;/b&gt;" style="rounded=0;whiteSpace=wrap;html=1;fontFamily=Helvetica;fontSize=11;fontColor=default;" parent="1" vertex="1">
          <mxGeometry x="660" y="240" width="120" height="240" as="geometry" />
        </mxCell>
        <mxCell id="tAqHpgGF29QeRpSOcUTc-33" value="A" style="text;html=1;align=center;verticalAlign=middle;resizable=0;points=[];autosize=1;strokeColor=none;fillColor=none;fontSize=11;fontFamily=Helvetica;fontColor=default;" parent="1" vertex="1">
          <mxGeometry x="660" y="275" width="30" height="30" as="geometry" />
        </mxCell>
        <mxCell id="tAqHpgGF29QeRpSOcUTc-34" value="RD" style="text;html=1;align=center;verticalAlign=middle;resizable=0;points=[];autosize=1;strokeColor=none;fillColor=none;fontSize=11;fontFamily=Helvetica;fontColor=default;" parent="1" vertex="1">
          <mxGeometry x="745" y="275" width="40" height="30" as="geometry" />
        </mxCell>
        <mxCell id="tAqHpgGF29QeRpSOcUTc-35" value="" style="endArrow=none;html=1;rounded=0;labelBackgroundColor=default;strokeColor=default;fontFamily=Helvetica;fontSize=11;fontColor=default;shape=connector;" parent="1" edge="1">
          <mxGeometry width="50" height="50" relative="1" as="geometry">
            <mxPoint x="550" y="299.17" as="sourcePoint" />
            <mxPoint x="660" y="299.17" as="targetPoint" />
          </mxGeometry>
        </mxCell>
        <mxCell id="tAqHpgGF29QeRpSOcUTc-38" value="" style="endArrow=none;html=1;rounded=0;labelBackgroundColor=default;strokeColor=default;fontFamily=Helvetica;fontSize=11;fontColor=default;shape=connector;" parent="1" edge="1">
          <mxGeometry width="50" height="50" relative="1" as="geometry">
            <mxPoint x="780" y="299.68" as="sourcePoint" />
            <mxPoint x="880" y="299.68" as="targetPoint" />
          </mxGeometry>
        </mxCell>
        <mxCell id="u54jU0PMI1pxLwhqkPNv-67" value="&lt;span style=&quot;color: rgba(0, 0, 0, 0); font-family: monospace; font-size: 0px; text-align: start; background-color: rgb(251, 251, 251);&quot;&gt;%3CmxGraphModel%3E%3Croot%3E%3CmxCell%20id%3D%220%22%2F%3E%3CmxCell%20id%3D%221%22%20parent%3D%220%22%2F%3E%3CmxCell%20id%3D%222%22%20value%3D%22instr%22%20style%3D%22text%3Bhtml%3D1%3Balign%3Dcenter%3BverticalAlign%3Dmiddle%3Bresizable%3D0%3Bpoints%3D%5B%5D%3Bautosize%3D1%3BstrokeColor%3Dnone%3BfillColor%3Dnone%3BfontSize%3D11%3BfontFamily%3DHelvetica%3BfontColor%3Ddefault%3B%22%20vertex%3D%221%22%20parent%3D%221%22%3E%3CmxGeometry%20x%3D%22785%22%20y%3D%22270%22%20width%3D%2240%22%20height%3D%2230%22%20as%3D%22geometry%22%2F%3E%3C%2FmxCell%3E%3C%2Froot%3E%3C%2FmxGraphModel%3E&lt;/span&gt;" style="edgeLabel;html=1;align=center;verticalAlign=middle;resizable=0;points=[];" vertex="1" connectable="0" parent="tAqHpgGF29QeRpSOcUTc-38">
          <mxGeometry x="0.1831" y="-1" relative="1" as="geometry">
            <mxPoint as="offset" />
          </mxGeometry>
        </mxCell>
        <mxCell id="u54jU0PMI1pxLwhqkPNv-68" value="&lt;span style=&quot;background-color: rgb(251, 251, 251);&quot;&gt;instr&lt;/span&gt;" style="edgeLabel;html=1;align=center;verticalAlign=middle;resizable=0;points=[];" vertex="1" connectable="0" parent="tAqHpgGF29QeRpSOcUTc-38">
          <mxGeometry relative="1" as="geometry">
            <mxPoint as="offset" />
          </mxGeometry>
        </mxCell>
        <mxCell id="tAqHpgGF29QeRpSOcUTc-42" value="" style="endArrow=none;html=1;rounded=0;labelBackgroundColor=default;strokeColor=default;fontFamily=Helvetica;fontSize=11;fontColor=default;shape=connector;" parent="1" edge="1">
          <mxGeometry width="50" height="50" relative="1" as="geometry">
            <mxPoint x="1140" y="569.58" as="sourcePoint" />
            <mxPoint x="1180" y="570" as="targetPoint" />
          </mxGeometry>
        </mxCell>
        <mxCell id="u54jU0PMI1pxLwhqkPNv-64" value="immB" style="edgeLabel;html=1;align=center;verticalAlign=middle;resizable=0;points=[];" vertex="1" connectable="0" parent="tAqHpgGF29QeRpSOcUTc-42">
          <mxGeometry relative="1" as="geometry">
            <mxPoint as="offset" />
          </mxGeometry>
        </mxCell>
        <mxCell id="SXYv1v4Vk7ZWwAZWmI2W-2" value="" style="endArrow=none;html=1;rounded=0;" parent="1" target="tAqHpgGF29QeRpSOcUTc-36" edge="1">
          <mxGeometry width="50" height="50" relative="1" as="geometry">
            <mxPoint x="880" y="300" as="sourcePoint" />
            <mxPoint x="930" y="250" as="targetPoint" />
          </mxGeometry>
        </mxCell>
        <mxCell id="SXYv1v4Vk7ZWwAZWmI2W-4" value="&lt;b&gt;REGISTER FILE&lt;/b&gt;" style="whiteSpace=wrap;html=1;aspect=fixed;spacingBottom=-200;" parent="1" vertex="1">
          <mxGeometry x="1370" y="240" width="240" height="240" as="geometry" />
        </mxCell>
        <mxCell id="SXYv1v4Vk7ZWwAZWmI2W-8" value="WD3" style="text;html=1;align=center;verticalAlign=middle;resizable=0;points=[];autosize=1;strokeColor=none;fillColor=none;" parent="1" vertex="1">
          <mxGeometry x="1375" y="415" width="50" height="30" as="geometry" />
        </mxCell>
        <mxCell id="SXYv1v4Vk7ZWwAZWmI2W-9" value="A1" style="text;html=1;align=center;verticalAlign=middle;resizable=0;points=[];autosize=1;strokeColor=none;fillColor=none;" parent="1" vertex="1">
          <mxGeometry x="1380" y="265" width="40" height="30" as="geometry" />
        </mxCell>
        <mxCell id="SXYv1v4Vk7ZWwAZWmI2W-10" value="A2" style="text;html=1;align=center;verticalAlign=middle;resizable=0;points=[];autosize=1;strokeColor=none;fillColor=none;" parent="1" vertex="1">
          <mxGeometry x="1380" y="305" width="40" height="30" as="geometry" />
        </mxCell>
        <mxCell id="SXYv1v4Vk7ZWwAZWmI2W-11" value="A3" style="text;html=1;align=center;verticalAlign=middle;resizable=0;points=[];autosize=1;strokeColor=none;fillColor=none;" parent="1" vertex="1">
          <mxGeometry x="1380" y="345" width="40" height="30" as="geometry" />
        </mxCell>
        <mxCell id="SXYv1v4Vk7ZWwAZWmI2W-12" value="" style="triangle;whiteSpace=wrap;html=1;rotation=90;" parent="1" vertex="1">
          <mxGeometry x="1420" y="225" width="20" height="50" as="geometry" />
        </mxCell>
        <mxCell id="SXYv1v4Vk7ZWwAZWmI2W-13" value="RD1" style="text;html=1;align=center;verticalAlign=middle;resizable=0;points=[];autosize=1;strokeColor=none;fillColor=none;" parent="1" vertex="1">
          <mxGeometry x="1550" y="265" width="50" height="30" as="geometry" />
        </mxCell>
        <mxCell id="SXYv1v4Vk7ZWwAZWmI2W-14" value="RD2" style="text;html=1;align=center;verticalAlign=middle;resizable=0;points=[];autosize=1;strokeColor=none;fillColor=none;" parent="1" vertex="1">
          <mxGeometry x="1550" y="305" width="50" height="30" as="geometry" />
        </mxCell>
        <mxCell id="SXYv1v4Vk7ZWwAZWmI2W-15" value="WE3" style="text;html=1;align=center;verticalAlign=middle;resizable=0;points=[];autosize=1;strokeColor=none;fillColor=none;" parent="1" vertex="1">
          <mxGeometry x="1465" y="245" width="50" height="30" as="geometry" />
        </mxCell>
        <mxCell id="u54jU0PMI1pxLwhqkPNv-79" style="edgeStyle=orthogonalEdgeStyle;rounded=0;orthogonalLoop=1;jettySize=auto;html=1;exitX=0.399;exitY=0.623;exitDx=0;exitDy=0;exitPerimeter=0;entryX=0;entryY=0.5;entryDx=0;entryDy=0;endArrow=none;endFill=0;" edge="1" parent="1" source="SXYv1v4Vk7ZWwAZWmI2W-112" target="u54jU0PMI1pxLwhqkPNv-26">
          <mxGeometry relative="1" as="geometry">
            <mxPoint x="1750" y="330" as="targetPoint" />
            <Array as="points">
              <mxPoint x="1740" y="560" />
              <mxPoint x="1650" y="560" />
              <mxPoint x="1650" y="720" />
            </Array>
          </mxGeometry>
        </mxCell>
        <mxCell id="u54jU0PMI1pxLwhqkPNv-86" style="edgeStyle=orthogonalEdgeStyle;rounded=0;orthogonalLoop=1;jettySize=auto;html=1;entryX=0;entryY=0.5;entryDx=0;entryDy=0;endArrow=none;endFill=0;" edge="1" parent="1" source="u54jU0PMI1pxLwhqkPNv-87" target="u54jU0PMI1pxLwhqkPNv-37">
          <mxGeometry relative="1" as="geometry">
            <mxPoint x="1760" y="220" as="targetPoint" />
            <mxPoint x="1800" y="100" as="sourcePoint" />
            <Array as="points">
              <mxPoint x="1280" y="220" />
            </Array>
          </mxGeometry>
        </mxCell>
        <mxCell id="SXYv1v4Vk7ZWwAZWmI2W-18" value="" style="shape=trapezoid;perimeter=trapezoidPerimeter;whiteSpace=wrap;html=1;fixedSize=1;rotation=90;" parent="1" vertex="1">
          <mxGeometry x="1620" y="390" width="120" height="60" as="geometry" />
        </mxCell>
        <mxCell id="SXYv1v4Vk7ZWwAZWmI2W-19" value="&lt;font style=&quot;font-size: 20px;&quot;&gt;1&lt;/font&gt;" style="text;html=1;align=center;verticalAlign=middle;resizable=0;points=[];autosize=1;strokeColor=none;fillColor=none;" parent="1" vertex="1">
          <mxGeometry x="1665" y="420" width="30" height="40" as="geometry" />
        </mxCell>
        <mxCell id="SXYv1v4Vk7ZWwAZWmI2W-20" value="&lt;font style=&quot;font-size: 20px;&quot;&gt;0&lt;/font&gt;" style="text;html=1;align=center;verticalAlign=middle;resizable=0;points=[];autosize=1;strokeColor=none;fillColor=none;" parent="1" vertex="1">
          <mxGeometry x="1665" y="380" width="30" height="40" as="geometry" />
        </mxCell>
        <mxCell id="u54jU0PMI1pxLwhqkPNv-11" style="edgeStyle=orthogonalEdgeStyle;rounded=0;orthogonalLoop=1;jettySize=auto;html=1;exitX=1;exitY=0.5;exitDx=0;exitDy=0;endArrow=none;endFill=0;" edge="1" parent="1" source="SXYv1v4Vk7ZWwAZWmI2W-21">
          <mxGeometry relative="1" as="geometry">
            <mxPoint x="1860" y="280" as="targetPoint" />
          </mxGeometry>
        </mxCell>
        <mxCell id="u54jU0PMI1pxLwhqkPNv-71" value="&lt;span style=&quot;font-size: 12px; background-color: rgb(251, 251, 251);&quot;&gt;aluControl&lt;/span&gt;" style="edgeLabel;html=1;align=center;verticalAlign=middle;resizable=0;points=[];" vertex="1" connectable="0" parent="u54jU0PMI1pxLwhqkPNv-11">
          <mxGeometry x="-0.8" relative="1" as="geometry">
            <mxPoint as="offset" />
          </mxGeometry>
        </mxCell>
        <mxCell id="u54jU0PMI1pxLwhqkPNv-41" value="wdSrc" style="edgeStyle=orthogonalEdgeStyle;rounded=0;orthogonalLoop=1;jettySize=auto;html=1;exitX=0.158;exitY=0.997;exitDx=0;exitDy=0;entryX=0;entryY=0.5;entryDx=0;entryDy=0;endArrow=none;endFill=0;exitPerimeter=0;" edge="1" parent="1" source="SXYv1v4Vk7ZWwAZWmI2W-21" target="SXYv1v4Vk7ZWwAZWmI2W-5">
          <mxGeometry x="-0.1461" relative="1" as="geometry">
            <Array as="points">
              <mxPoint x="1359" y="200" />
              <mxPoint x="1210" y="200" />
            </Array>
            <mxPoint as="offset" />
          </mxGeometry>
        </mxCell>
        <mxCell id="u54jU0PMI1pxLwhqkPNv-72" style="edgeStyle=orthogonalEdgeStyle;rounded=0;orthogonalLoop=1;jettySize=auto;html=1;exitX=1;exitY=0.597;exitDx=0;exitDy=0;exitPerimeter=0;endArrow=none;endFill=0;" edge="1" parent="1" source="SXYv1v4Vk7ZWwAZWmI2W-21" target="u54jU0PMI1pxLwhqkPNv-27">
          <mxGeometry relative="1" as="geometry">
            <mxPoint x="1790" y="230" as="targetPoint" />
            <Array as="points">
              <mxPoint x="2040" y="79" />
              <mxPoint x="2040" y="560" />
              <mxPoint x="1780" y="560" />
            </Array>
          </mxGeometry>
        </mxCell>
        <mxCell id="u54jU0PMI1pxLwhqkPNv-73" value="fifoPush" style="edgeLabel;html=1;align=center;verticalAlign=middle;resizable=0;points=[];" vertex="1" connectable="0" parent="u54jU0PMI1pxLwhqkPNv-72">
          <mxGeometry x="-0.95" y="1" relative="1" as="geometry">
            <mxPoint as="offset" />
          </mxGeometry>
        </mxCell>
        <mxCell id="u54jU0PMI1pxLwhqkPNv-74" style="edgeStyle=orthogonalEdgeStyle;rounded=0;orthogonalLoop=1;jettySize=auto;html=1;exitX=0.997;exitY=0.69;exitDx=0;exitDy=0;entryX=0.5;entryY=0;entryDx=0;entryDy=0;exitPerimeter=0;endArrow=none;endFill=0;" edge="1" parent="1">
          <mxGeometry relative="1" as="geometry">
            <mxPoint x="1841.32" y="600" as="targetPoint" />
            <mxPoint x="1729.9999999999998" y="98" as="sourcePoint" />
            <Array as="points">
              <mxPoint x="1730.32" y="100" />
              <mxPoint x="2081.32" y="100" />
              <mxPoint x="2081.32" y="580" />
              <mxPoint x="1841.32" y="580" />
            </Array>
          </mxGeometry>
        </mxCell>
        <mxCell id="u54jU0PMI1pxLwhqkPNv-75" value="fifoPop" style="edgeLabel;html=1;align=center;verticalAlign=middle;resizable=0;points=[];" vertex="1" connectable="0" parent="u54jU0PMI1pxLwhqkPNv-74">
          <mxGeometry x="-0.95" relative="1" as="geometry">
            <mxPoint as="offset" />
          </mxGeometry>
        </mxCell>
        <mxCell id="SXYv1v4Vk7ZWwAZWmI2W-21" value="&lt;b&gt;CONTROL UNIT&lt;/b&gt;" style="rounded=1;whiteSpace=wrap;html=1;spacingBottom=-150;" parent="1" vertex="1">
          <mxGeometry x="1290" y="-40" width="440" height="200" as="geometry" />
        </mxCell>
        <mxCell id="SXYv1v4Vk7ZWwAZWmI2W-22" value="" style="endArrow=none;html=1;rounded=0;" parent="1" edge="1">
          <mxGeometry width="50" height="50" relative="1" as="geometry">
            <mxPoint x="1730" as="sourcePoint" />
            <mxPoint x="1790" as="targetPoint" />
          </mxGeometry>
        </mxCell>
        <mxCell id="u54jU0PMI1pxLwhqkPNv-69" value="&lt;span style=&quot;font-size: 12px; background-color: rgb(251, 251, 251);&quot;&gt;pcSrc&lt;/span&gt;" style="edgeLabel;html=1;align=center;verticalAlign=middle;resizable=0;points=[];" vertex="1" connectable="0" parent="SXYv1v4Vk7ZWwAZWmI2W-22">
          <mxGeometry relative="1" as="geometry">
            <mxPoint as="offset" />
          </mxGeometry>
        </mxCell>
        <mxCell id="SXYv1v4Vk7ZWwAZWmI2W-23" value="" style="endArrow=none;html=1;rounded=0;" parent="1" edge="1">
          <mxGeometry width="50" height="50" relative="1" as="geometry">
            <mxPoint x="1790" as="sourcePoint" />
            <mxPoint x="1790" y="-80" as="targetPoint" />
          </mxGeometry>
        </mxCell>
        <mxCell id="SXYv1v4Vk7ZWwAZWmI2W-24" value="" style="endArrow=none;html=1;rounded=0;" parent="1" edge="1">
          <mxGeometry width="50" height="50" relative="1" as="geometry">
            <mxPoint x="160" y="-80" as="sourcePoint" />
            <mxPoint x="1790" y="-80" as="targetPoint" />
          </mxGeometry>
        </mxCell>
        <mxCell id="SXYv1v4Vk7ZWwAZWmI2W-25" value="" style="endArrow=none;html=1;rounded=0;" parent="1" edge="1">
          <mxGeometry width="50" height="50" relative="1" as="geometry">
            <mxPoint x="160" y="250" as="sourcePoint" />
            <mxPoint x="160" y="-80" as="targetPoint" />
          </mxGeometry>
        </mxCell>
        <mxCell id="SXYv1v4Vk7ZWwAZWmI2W-27" value="" style="endArrow=none;html=1;rounded=0;" parent="1" edge="1">
          <mxGeometry width="50" height="50" relative="1" as="geometry">
            <mxPoint x="1630" y="399.29" as="sourcePoint" />
            <mxPoint x="1650" y="399.29" as="targetPoint" />
          </mxGeometry>
        </mxCell>
        <mxCell id="SXYv1v4Vk7ZWwAZWmI2W-28" value="" style="endArrow=none;html=1;rounded=0;" parent="1" edge="1">
          <mxGeometry width="50" height="50" relative="1" as="geometry">
            <mxPoint x="1630" y="400" as="sourcePoint" />
            <mxPoint x="1630" y="320" as="targetPoint" />
          </mxGeometry>
        </mxCell>
        <mxCell id="SXYv1v4Vk7ZWwAZWmI2W-29" value="" style="endArrow=none;html=1;rounded=0;" parent="1" edge="1">
          <mxGeometry width="50" height="50" relative="1" as="geometry">
            <mxPoint x="1610" y="319.63" as="sourcePoint" />
            <mxPoint x="1630" y="319.63" as="targetPoint" />
          </mxGeometry>
        </mxCell>
        <mxCell id="SXYv1v4Vk7ZWwAZWmI2W-30" value="" style="endArrow=none;html=1;rounded=0;" parent="1" source="SXYv1v4Vk7ZWwAZWmI2W-112" edge="1">
          <mxGeometry width="50" height="50" relative="1" as="geometry">
            <mxPoint x="1610" y="279.89" as="sourcePoint" />
            <mxPoint x="1820" y="280" as="targetPoint" />
          </mxGeometry>
        </mxCell>
        <mxCell id="u54jU0PMI1pxLwhqkPNv-56" value="srcA" style="edgeLabel;html=1;align=center;verticalAlign=middle;resizable=0;points=[];" vertex="1" connectable="0" parent="SXYv1v4Vk7ZWwAZWmI2W-30">
          <mxGeometry relative="1" as="geometry">
            <mxPoint as="offset" />
          </mxGeometry>
        </mxCell>
        <mxCell id="SXYv1v4Vk7ZWwAZWmI2W-31" value="" style="endArrow=none;html=1;rounded=0;" parent="1" edge="1">
          <mxGeometry width="50" height="50" relative="1" as="geometry">
            <mxPoint x="1710" y="419.29" as="sourcePoint" />
            <mxPoint x="1820" y="420" as="targetPoint" />
          </mxGeometry>
        </mxCell>
        <mxCell id="u54jU0PMI1pxLwhqkPNv-55" value="srcB" style="edgeLabel;html=1;align=center;verticalAlign=middle;resizable=0;points=[];" vertex="1" connectable="0" parent="SXYv1v4Vk7ZWwAZWmI2W-31">
          <mxGeometry relative="1" as="geometry">
            <mxPoint as="offset" />
          </mxGeometry>
        </mxCell>
        <mxCell id="SXYv1v4Vk7ZWwAZWmI2W-45" value="" style="endArrow=none;html=1;rounded=0;" parent="1" edge="1">
          <mxGeometry width="50" height="50" relative="1" as="geometry">
            <mxPoint x="1489.75" y="240" as="sourcePoint" />
            <mxPoint x="1489.75" y="160" as="targetPoint" />
          </mxGeometry>
        </mxCell>
        <mxCell id="u54jU0PMI1pxLwhqkPNv-54" value="regWrite" style="edgeLabel;html=1;align=center;verticalAlign=middle;resizable=0;points=[];" vertex="1" connectable="0" parent="SXYv1v4Vk7ZWwAZWmI2W-45">
          <mxGeometry relative="1" as="geometry">
            <mxPoint as="offset" />
          </mxGeometry>
        </mxCell>
        <mxCell id="SXYv1v4Vk7ZWwAZWmI2W-47" value="" style="endArrow=none;html=1;rounded=0;" parent="1" edge="1">
          <mxGeometry width="50" height="50" relative="1" as="geometry">
            <mxPoint x="1680.07" y="370" as="sourcePoint" />
            <mxPoint x="1680" y="160" as="targetPoint" />
          </mxGeometry>
        </mxCell>
        <mxCell id="SXYv1v4Vk7ZWwAZWmI2W-48" value="aluSrc" style="text;html=1;align=center;verticalAlign=middle;resizable=0;points=[];autosize=1;strokeColor=none;fillColor=none;" parent="1" vertex="1">
          <mxGeometry x="1680" y="195" width="60" height="30" as="geometry" />
        </mxCell>
        <mxCell id="SXYv1v4Vk7ZWwAZWmI2W-59" value="" style="endArrow=none;html=1;rounded=0;" parent="1" edge="1">
          <mxGeometry width="50" height="50" relative="1" as="geometry">
            <mxPoint x="1140" y="279.39" as="sourcePoint" />
            <mxPoint x="1370" y="279.39" as="targetPoint" />
          </mxGeometry>
        </mxCell>
        <mxCell id="u54jU0PMI1pxLwhqkPNv-61" value="rs1" style="edgeLabel;html=1;align=center;verticalAlign=middle;resizable=0;points=[];" vertex="1" connectable="0" parent="SXYv1v4Vk7ZWwAZWmI2W-59">
          <mxGeometry relative="1" as="geometry">
            <mxPoint as="offset" />
          </mxGeometry>
        </mxCell>
        <mxCell id="SXYv1v4Vk7ZWwAZWmI2W-60" value="" style="endArrow=none;html=1;rounded=0;" parent="1" edge="1">
          <mxGeometry width="50" height="50" relative="1" as="geometry">
            <mxPoint x="1140" y="319.7" as="sourcePoint" />
            <mxPoint x="1370" y="319.7" as="targetPoint" />
          </mxGeometry>
        </mxCell>
        <mxCell id="u54jU0PMI1pxLwhqkPNv-62" value="rs2" style="edgeLabel;html=1;align=center;verticalAlign=middle;resizable=0;points=[];" vertex="1" connectable="0" parent="SXYv1v4Vk7ZWwAZWmI2W-60">
          <mxGeometry relative="1" as="geometry">
            <mxPoint as="offset" />
          </mxGeometry>
        </mxCell>
        <mxCell id="SXYv1v4Vk7ZWwAZWmI2W-61" value="" style="endArrow=none;html=1;rounded=0;" parent="1" edge="1">
          <mxGeometry width="50" height="50" relative="1" as="geometry">
            <mxPoint x="1140" y="360" as="sourcePoint" />
            <mxPoint x="1370" y="360" as="targetPoint" />
          </mxGeometry>
        </mxCell>
        <mxCell id="u54jU0PMI1pxLwhqkPNv-81" value="rd" style="edgeLabel;html=1;align=center;verticalAlign=middle;resizable=0;points=[];" vertex="1" connectable="0" parent="SXYv1v4Vk7ZWwAZWmI2W-61">
          <mxGeometry relative="1" as="geometry">
            <mxPoint as="offset" />
          </mxGeometry>
        </mxCell>
        <mxCell id="SXYv1v4Vk7ZWwAZWmI2W-68" value="" style="endArrow=none;html=1;rounded=0;" parent="1" edge="1">
          <mxGeometry width="50" height="50" relative="1" as="geometry">
            <mxPoint x="1140" y="40" as="sourcePoint" />
            <mxPoint x="1290" y="40" as="targetPoint" />
          </mxGeometry>
        </mxCell>
        <mxCell id="u54jU0PMI1pxLwhqkPNv-51" value="cmdOp" style="edgeLabel;html=1;align=center;verticalAlign=middle;resizable=0;points=[];" vertex="1" connectable="0" parent="SXYv1v4Vk7ZWwAZWmI2W-68">
          <mxGeometry relative="1" as="geometry">
            <mxPoint as="offset" />
          </mxGeometry>
        </mxCell>
        <mxCell id="SXYv1v4Vk7ZWwAZWmI2W-69" value="" style="endArrow=none;html=1;rounded=0;" parent="1" edge="1">
          <mxGeometry width="50" height="50" relative="1" as="geometry">
            <mxPoint x="1140" y="80" as="sourcePoint" />
            <mxPoint x="1290" y="80" as="targetPoint" />
          </mxGeometry>
        </mxCell>
        <mxCell id="u54jU0PMI1pxLwhqkPNv-52" value="cmdF3" style="edgeLabel;html=1;align=center;verticalAlign=middle;resizable=0;points=[];" vertex="1" connectable="0" parent="SXYv1v4Vk7ZWwAZWmI2W-69">
          <mxGeometry relative="1" as="geometry">
            <mxPoint as="offset" />
          </mxGeometry>
        </mxCell>
        <mxCell id="SXYv1v4Vk7ZWwAZWmI2W-70" value="" style="endArrow=none;html=1;rounded=0;" parent="1" edge="1">
          <mxGeometry width="50" height="50" relative="1" as="geometry">
            <mxPoint x="1140" y="120" as="sourcePoint" />
            <mxPoint x="1290" y="120" as="targetPoint" />
          </mxGeometry>
        </mxCell>
        <mxCell id="u54jU0PMI1pxLwhqkPNv-53" value="cmdF7" style="edgeLabel;html=1;align=center;verticalAlign=middle;resizable=0;points=[];" vertex="1" connectable="0" parent="SXYv1v4Vk7ZWwAZWmI2W-70">
          <mxGeometry relative="1" as="geometry">
            <mxPoint as="offset" />
          </mxGeometry>
        </mxCell>
        <mxCell id="SXYv1v4Vk7ZWwAZWmI2W-95" value="" style="endArrow=none;html=1;rounded=0;" parent="1" edge="1">
          <mxGeometry width="50" height="50" relative="1" as="geometry">
            <mxPoint x="1140" y="660" as="sourcePoint" />
            <mxPoint x="1220" y="660" as="targetPoint" />
          </mxGeometry>
        </mxCell>
        <mxCell id="SXYv1v4Vk7ZWwAZWmI2W-96" value="" style="endArrow=none;html=1;rounded=0;" parent="1" edge="1">
          <mxGeometry width="50" height="50" relative="1" as="geometry">
            <mxPoint x="1140" y="660" as="sourcePoint" />
            <mxPoint x="1140" y="610" as="targetPoint" />
          </mxGeometry>
        </mxCell>
        <mxCell id="SXYv1v4Vk7ZWwAZWmI2W-97" value="" style="endArrow=none;html=1;rounded=0;" parent="1" edge="1">
          <mxGeometry width="50" height="50" relative="1" as="geometry">
            <mxPoint x="1180" y="620" as="sourcePoint" />
            <mxPoint x="1220" y="620" as="targetPoint" />
          </mxGeometry>
        </mxCell>
        <mxCell id="SXYv1v4Vk7ZWwAZWmI2W-98" value="" style="endArrow=none;html=1;rounded=0;" parent="1" edge="1">
          <mxGeometry width="50" height="50" relative="1" as="geometry">
            <mxPoint x="1180" y="620" as="sourcePoint" />
            <mxPoint x="1180" y="570" as="targetPoint" />
          </mxGeometry>
        </mxCell>
        <mxCell id="SXYv1v4Vk7ZWwAZWmI2W-111" value="" style="endArrow=none;html=1;rounded=0;" parent="1" edge="1">
          <mxGeometry width="50" height="50" relative="1" as="geometry">
            <mxPoint x="1580" y="570" as="sourcePoint" />
            <mxPoint x="1580" y="570" as="targetPoint" />
          </mxGeometry>
        </mxCell>
        <mxCell id="SXYv1v4Vk7ZWwAZWmI2W-113" value="" style="endArrow=none;html=1;rounded=0;" parent="1" target="SXYv1v4Vk7ZWwAZWmI2W-112" edge="1">
          <mxGeometry width="50" height="50" relative="1" as="geometry">
            <mxPoint x="1610" y="279.89" as="sourcePoint" />
            <mxPoint x="1800" y="279.63" as="targetPoint" />
          </mxGeometry>
        </mxCell>
        <mxCell id="u54jU0PMI1pxLwhqkPNv-78" value="" style="edgeStyle=orthogonalEdgeStyle;rounded=0;orthogonalLoop=1;jettySize=auto;html=1;" edge="1" parent="1" source="SXYv1v4Vk7ZWwAZWmI2W-112" target="SXYv1v4Vk7ZWwAZWmI2W-18">
          <mxGeometry relative="1" as="geometry" />
        </mxCell>
        <mxCell id="SXYv1v4Vk7ZWwAZWmI2W-112" value="" style="shape=waypoint;sketch=0;fillStyle=solid;size=6;pointerEvents=1;points=[];fillColor=none;resizable=0;rotatable=0;perimeter=centerPerimeter;snapToPoint=1;" parent="1" vertex="1">
          <mxGeometry x="1730" y="270" width="20" height="20" as="geometry" />
        </mxCell>
        <mxCell id="u54jU0PMI1pxLwhqkPNv-12" value="" style="verticalLabelPosition=bottom;shadow=0;dashed=0;align=center;html=1;verticalAlign=top;shape=mxgraph.electrical.logic_gates.logic_gate;operation=xor;negating=1;negSize=0.15;" vertex="1" parent="1">
          <mxGeometry x="1410" y="35" width="100" height="60" as="geometry" />
        </mxCell>
        <mxCell id="u54jU0PMI1pxLwhqkPNv-13" value="" style="verticalLabelPosition=bottom;shadow=0;dashed=0;align=center;html=1;verticalAlign=top;shape=mxgraph.electrical.logic_gates.logic_gate;operation=and;" vertex="1" parent="1">
          <mxGeometry x="1510" y="20" width="100" height="60" as="geometry" />
        </mxCell>
        <mxCell id="u54jU0PMI1pxLwhqkPNv-15" value="condZero" style="text;html=1;align=center;verticalAlign=middle;whiteSpace=wrap;rounded=0;" vertex="1" parent="1">
          <mxGeometry x="1350" y="65" width="60" height="30" as="geometry" />
        </mxCell>
        <mxCell id="u54jU0PMI1pxLwhqkPNv-16" value="branch" style="text;html=1;align=center;verticalAlign=middle;whiteSpace=wrap;rounded=0;" vertex="1" parent="1">
          <mxGeometry x="1460" y="20" width="60" height="30" as="geometry" />
        </mxCell>
        <mxCell id="u54jU0PMI1pxLwhqkPNv-17" style="edgeStyle=orthogonalEdgeStyle;rounded=0;orthogonalLoop=1;jettySize=auto;html=1;exitX=1;exitY=0.5;exitDx=0;exitDy=0;exitPerimeter=0;entryX=0.001;entryY=1.004;entryDx=0;entryDy=0;entryPerimeter=0;endArrow=none;endFill=0;" edge="1" parent="1" source="u54jU0PMI1pxLwhqkPNv-13">
          <mxGeometry relative="1" as="geometry">
            <mxPoint x="1730.0499999999997" y="0.11999999999989086" as="targetPoint" />
            <Array as="points">
              <mxPoint x="1610" />
            </Array>
          </mxGeometry>
        </mxCell>
        <mxCell id="u54jU0PMI1pxLwhqkPNv-18" value="" style="group" vertex="1" connectable="0" parent="1">
          <mxGeometry x="1820" y="260" width="70" height="180" as="geometry" />
        </mxCell>
        <mxCell id="u54jU0PMI1pxLwhqkPNv-9" value="ALU" style="text;html=1;align=center;verticalAlign=middle;whiteSpace=wrap;rounded=0;" vertex="1" parent="u54jU0PMI1pxLwhqkPNv-18">
          <mxGeometry x="20" y="67.5" width="50" height="45" as="geometry" />
        </mxCell>
        <mxCell id="u54jU0PMI1pxLwhqkPNv-2" value="" style="endArrow=none;html=1;rounded=0;" edge="1" parent="u54jU0PMI1pxLwhqkPNv-18">
          <mxGeometry width="50" height="50" relative="1" as="geometry">
            <mxPoint y="60" as="sourcePoint" />
            <mxPoint as="targetPoint" />
          </mxGeometry>
        </mxCell>
        <mxCell id="u54jU0PMI1pxLwhqkPNv-3" value="" style="endArrow=none;html=1;rounded=0;" edge="1" parent="u54jU0PMI1pxLwhqkPNv-18">
          <mxGeometry width="50" height="50" relative="1" as="geometry">
            <mxPoint x="22.85714285714289" y="90" as="sourcePoint" />
            <mxPoint y="60" as="targetPoint" />
          </mxGeometry>
        </mxCell>
        <mxCell id="u54jU0PMI1pxLwhqkPNv-4" value="" style="endArrow=none;html=1;rounded=0;" edge="1" parent="u54jU0PMI1pxLwhqkPNv-18">
          <mxGeometry width="50" height="50" relative="1" as="geometry">
            <mxPoint y="120" as="sourcePoint" />
            <mxPoint x="22.85714285714289" y="90" as="targetPoint" />
          </mxGeometry>
        </mxCell>
        <mxCell id="u54jU0PMI1pxLwhqkPNv-5" value="" style="endArrow=none;html=1;rounded=0;" edge="1" parent="u54jU0PMI1pxLwhqkPNv-18">
          <mxGeometry width="50" height="50" relative="1" as="geometry">
            <mxPoint y="180" as="sourcePoint" />
            <mxPoint y="120" as="targetPoint" />
          </mxGeometry>
        </mxCell>
        <mxCell id="u54jU0PMI1pxLwhqkPNv-6" value="" style="endArrow=none;html=1;rounded=0;" edge="1" parent="u54jU0PMI1pxLwhqkPNv-18">
          <mxGeometry width="50" height="50" relative="1" as="geometry">
            <mxPoint as="sourcePoint" />
            <mxPoint x="68.57142857142867" y="30" as="targetPoint" />
          </mxGeometry>
        </mxCell>
        <mxCell id="u54jU0PMI1pxLwhqkPNv-7" value="" style="endArrow=none;html=1;rounded=0;" edge="1" parent="u54jU0PMI1pxLwhqkPNv-18">
          <mxGeometry width="50" height="50" relative="1" as="geometry">
            <mxPoint y="180" as="sourcePoint" />
            <mxPoint x="68.57142857142867" y="150" as="targetPoint" />
          </mxGeometry>
        </mxCell>
        <mxCell id="u54jU0PMI1pxLwhqkPNv-8" value="" style="endArrow=none;html=1;rounded=0;" edge="1" parent="u54jU0PMI1pxLwhqkPNv-18">
          <mxGeometry width="50" height="50" relative="1" as="geometry">
            <mxPoint x="68.57142857142867" y="30" as="sourcePoint" />
            <mxPoint x="68.57142857142867" y="150" as="targetPoint" />
          </mxGeometry>
        </mxCell>
        <mxCell id="u54jU0PMI1pxLwhqkPNv-19" style="edgeStyle=orthogonalEdgeStyle;rounded=0;orthogonalLoop=1;jettySize=auto;html=1;exitX=1;exitY=0;exitDx=0;exitDy=0;entryX=0;entryY=0.25;entryDx=0;entryDy=0;entryPerimeter=0;endArrow=none;endFill=0;" edge="1" parent="1" source="u54jU0PMI1pxLwhqkPNv-9" target="u54jU0PMI1pxLwhqkPNv-12">
          <mxGeometry relative="1" as="geometry">
            <mxPoint x="1960" y="300" as="targetPoint" />
            <Array as="points">
              <mxPoint x="1960" y="328" />
              <mxPoint x="1960" y="-70" />
              <mxPoint x="1390" y="-70" />
              <mxPoint x="1390" y="50" />
            </Array>
          </mxGeometry>
        </mxCell>
        <mxCell id="u54jU0PMI1pxLwhqkPNv-63" value="aluZero" style="edgeLabel;html=1;align=center;verticalAlign=middle;resizable=0;points=[];rotation=270;" vertex="1" connectable="0" parent="u54jU0PMI1pxLwhqkPNv-19">
          <mxGeometry x="-0.5" relative="1" as="geometry">
            <mxPoint as="offset" />
          </mxGeometry>
        </mxCell>
        <mxCell id="u54jU0PMI1pxLwhqkPNv-22" style="edgeStyle=orthogonalEdgeStyle;rounded=0;orthogonalLoop=1;jettySize=auto;html=1;exitX=1;exitY=1;exitDx=0;exitDy=0;entryX=0.75;entryY=1;entryDx=0;entryDy=0;endArrow=none;endFill=0;" edge="1" parent="1" source="u54jU0PMI1pxLwhqkPNv-9" target="SXYv1v4Vk7ZWwAZWmI2W-5">
          <mxGeometry relative="1" as="geometry">
            <mxPoint x="1440" y="780" as="targetPoint" />
            <Array as="points">
              <mxPoint x="1960" y="373" />
              <mxPoint x="1960" y="520" />
              <mxPoint x="1160" y="520" />
              <mxPoint x="1160" y="450" />
            </Array>
          </mxGeometry>
        </mxCell>
        <mxCell id="u54jU0PMI1pxLwhqkPNv-57" value="aluResult" style="edgeLabel;html=1;align=center;verticalAlign=middle;resizable=0;points=[];" vertex="1" connectable="0" parent="u54jU0PMI1pxLwhqkPNv-22">
          <mxGeometry x="0.955" y="1" relative="1" as="geometry">
            <mxPoint as="offset" />
          </mxGeometry>
        </mxCell>
        <mxCell id="u54jU0PMI1pxLwhqkPNv-46" style="edgeStyle=orthogonalEdgeStyle;rounded=0;orthogonalLoop=1;jettySize=auto;html=1;exitX=1;exitY=0.5;exitDx=0;exitDy=0;entryX=0.75;entryY=1;entryDx=0;entryDy=0;endArrow=none;endFill=0;" edge="1" parent="1" source="u54jU0PMI1pxLwhqkPNv-31" target="u54jU0PMI1pxLwhqkPNv-37">
          <mxGeometry relative="1" as="geometry">
            <Array as="points">
              <mxPoint x="2015" y="720" />
              <mxPoint x="2015" y="510" />
              <mxPoint x="1220" y="510" />
              <mxPoint x="1220" y="475" />
            </Array>
          </mxGeometry>
        </mxCell>
        <mxCell id="u54jU0PMI1pxLwhqkPNv-77" value="fifoResult" style="edgeLabel;html=1;align=center;verticalAlign=middle;resizable=0;points=[];" vertex="1" connectable="0" parent="u54jU0PMI1pxLwhqkPNv-46">
          <mxGeometry x="0.7927" y="-2" relative="1" as="geometry">
            <mxPoint as="offset" />
          </mxGeometry>
        </mxCell>
        <mxCell id="u54jU0PMI1pxLwhqkPNv-35" value="" style="group" vertex="1" connectable="0" parent="1">
          <mxGeometry x="1190" y="375" width="40" height="100" as="geometry" />
        </mxCell>
        <mxCell id="SXYv1v4Vk7ZWwAZWmI2W-5" value="" style="shape=trapezoid;perimeter=trapezoidPerimeter;whiteSpace=wrap;html=1;fixedSize=1;rotation=90;" parent="u54jU0PMI1pxLwhqkPNv-35" vertex="1">
          <mxGeometry x="-30" y="30" width="100" height="40" as="geometry" />
        </mxCell>
        <mxCell id="u54jU0PMI1pxLwhqkPNv-33" value="&lt;font style=&quot;font-size: 20px;&quot;&gt;0&lt;/font&gt;" style="text;html=1;align=center;verticalAlign=middle;resizable=0;points=[];autosize=1;strokeColor=none;fillColor=none;" vertex="1" parent="u54jU0PMI1pxLwhqkPNv-35">
          <mxGeometry x="5" y="45" width="30" height="40" as="geometry" />
        </mxCell>
        <mxCell id="u54jU0PMI1pxLwhqkPNv-34" value="&lt;font style=&quot;font-size: 20px;&quot;&gt;1&lt;/font&gt;" style="text;html=1;align=center;verticalAlign=middle;resizable=0;points=[];autosize=1;strokeColor=none;fillColor=none;" vertex="1" parent="u54jU0PMI1pxLwhqkPNv-35">
          <mxGeometry x="5" y="15" width="30" height="40" as="geometry" />
        </mxCell>
        <mxCell id="u54jU0PMI1pxLwhqkPNv-36" value="" style="group" vertex="1" connectable="0" parent="1">
          <mxGeometry x="1260" y="400" width="40" height="100" as="geometry" />
        </mxCell>
        <mxCell id="u54jU0PMI1pxLwhqkPNv-37" value="" style="shape=trapezoid;perimeter=trapezoidPerimeter;whiteSpace=wrap;html=1;fixedSize=1;rotation=90;" vertex="1" parent="u54jU0PMI1pxLwhqkPNv-36">
          <mxGeometry x="-30" y="30" width="100" height="40" as="geometry" />
        </mxCell>
        <mxCell id="u54jU0PMI1pxLwhqkPNv-38" value="&lt;font style=&quot;font-size: 20px;&quot;&gt;1&lt;/font&gt;" style="text;html=1;align=center;verticalAlign=middle;resizable=0;points=[];autosize=1;strokeColor=none;fillColor=none;" vertex="1" parent="u54jU0PMI1pxLwhqkPNv-36">
          <mxGeometry x="5" y="45" width="30" height="40" as="geometry" />
        </mxCell>
        <mxCell id="u54jU0PMI1pxLwhqkPNv-39" value="&lt;font style=&quot;font-size: 20px;&quot;&gt;0&lt;/font&gt;" style="text;html=1;align=center;verticalAlign=middle;resizable=0;points=[];autosize=1;strokeColor=none;fillColor=none;" vertex="1" parent="u54jU0PMI1pxLwhqkPNv-36">
          <mxGeometry x="5" y="15" width="30" height="40" as="geometry" />
        </mxCell>
        <mxCell id="u54jU0PMI1pxLwhqkPNv-43" style="edgeStyle=orthogonalEdgeStyle;rounded=0;orthogonalLoop=1;jettySize=auto;html=1;exitX=0.75;exitY=1;exitDx=0;exitDy=0;endArrow=none;endFill=0;" edge="1" parent="1" source="SXYv1v4Vk7ZWwAZWmI2W-18">
          <mxGeometry relative="1" as="geometry">
            <mxPoint x="1140" y="540" as="targetPoint" />
            <Array as="points">
              <mxPoint x="1630" y="450" />
              <mxPoint x="1630" y="540" />
              <mxPoint x="1140" y="540" />
            </Array>
          </mxGeometry>
        </mxCell>
        <mxCell id="u54jU0PMI1pxLwhqkPNv-59" value="immI" style="edgeLabel;html=1;align=center;verticalAlign=middle;resizable=0;points=[];" vertex="1" connectable="0" parent="u54jU0PMI1pxLwhqkPNv-43">
          <mxGeometry x="0.1361" relative="1" as="geometry">
            <mxPoint as="offset" />
          </mxGeometry>
        </mxCell>
        <mxCell id="u54jU0PMI1pxLwhqkPNv-44" style="edgeStyle=orthogonalEdgeStyle;rounded=0;orthogonalLoop=1;jettySize=auto;html=1;exitX=0.5;exitY=0;exitDx=0;exitDy=0;entryX=0.25;entryY=1;entryDx=0;entryDy=0;endArrow=none;endFill=0;" edge="1" parent="1" source="SXYv1v4Vk7ZWwAZWmI2W-5" target="u54jU0PMI1pxLwhqkPNv-37">
          <mxGeometry relative="1" as="geometry" />
        </mxCell>
        <mxCell id="u54jU0PMI1pxLwhqkPNv-47" style="edgeStyle=orthogonalEdgeStyle;rounded=0;orthogonalLoop=1;jettySize=auto;html=1;exitX=0.5;exitY=0;exitDx=0;exitDy=0;entryX=-0.004;entryY=0.792;entryDx=0;entryDy=0;entryPerimeter=0;endArrow=none;endFill=0;" edge="1" parent="1" source="u54jU0PMI1pxLwhqkPNv-37" target="SXYv1v4Vk7ZWwAZWmI2W-4">
          <mxGeometry relative="1" as="geometry" />
        </mxCell>
        <mxCell id="u54jU0PMI1pxLwhqkPNv-80" value="" style="group" vertex="1" connectable="0" parent="1">
          <mxGeometry x="1700" y="600" width="180" height="240" as="geometry" />
        </mxCell>
        <mxCell id="u54jU0PMI1pxLwhqkPNv-24" value="FIFO" style="rounded=0;whiteSpace=wrap;html=1;verticalAlign=bottom;spacingBottom=10;spacingLeft=1;fontStyle=1" vertex="1" parent="u54jU0PMI1pxLwhqkPNv-80">
          <mxGeometry width="180" height="240" as="geometry" />
        </mxCell>
        <mxCell id="u54jU0PMI1pxLwhqkPNv-25" value="" style="triangle;whiteSpace=wrap;html=1;rotation=90;" vertex="1" parent="u54jU0PMI1pxLwhqkPNv-80">
          <mxGeometry x="25" y="-10" width="20" height="40" as="geometry" />
        </mxCell>
        <mxCell id="u54jU0PMI1pxLwhqkPNv-26" value="din" style="text;html=1;align=left;verticalAlign=middle;whiteSpace=wrap;rounded=0;spacingLeft=5;" vertex="1" parent="u54jU0PMI1pxLwhqkPNv-80">
          <mxGeometry y="105" width="60" height="30" as="geometry" />
        </mxCell>
        <mxCell id="u54jU0PMI1pxLwhqkPNv-27" value="push" style="text;html=1;align=left;verticalAlign=middle;whiteSpace=wrap;rounded=0;spacingLeft=5;" vertex="1" parent="u54jU0PMI1pxLwhqkPNv-80">
          <mxGeometry x="60" width="40" height="30" as="geometry" />
        </mxCell>
        <mxCell id="u54jU0PMI1pxLwhqkPNv-28" value="pop" style="text;html=1;align=left;verticalAlign=middle;whiteSpace=wrap;rounded=0;spacingLeft=5;" vertex="1" parent="u54jU0PMI1pxLwhqkPNv-80">
          <mxGeometry x="120" width="40" height="30" as="geometry" />
        </mxCell>
        <mxCell id="u54jU0PMI1pxLwhqkPNv-31" value="dout" style="text;html=1;align=right;verticalAlign=middle;whiteSpace=wrap;rounded=0;spacingLeft=0;spacingRight=5;" vertex="1" parent="u54jU0PMI1pxLwhqkPNv-80">
          <mxGeometry x="120" y="105" width="60" height="30" as="geometry" />
        </mxCell>
        <mxCell id="u54jU0PMI1pxLwhqkPNv-84" style="edgeStyle=orthogonalEdgeStyle;rounded=0;orthogonalLoop=1;jettySize=auto;html=1;exitX=0;exitY=0.5;exitDx=0;exitDy=0;endArrow=none;endFill=0;" edge="1" parent="u54jU0PMI1pxLwhqkPNv-80" source="u54jU0PMI1pxLwhqkPNv-82">
          <mxGeometry relative="1" as="geometry">
            <mxPoint x="-150" y="174.82352941176487" as="targetPoint" />
          </mxGeometry>
        </mxCell>
        <mxCell id="u54jU0PMI1pxLwhqkPNv-85" value="rst_n" style="edgeLabel;html=1;align=center;verticalAlign=middle;resizable=0;points=[];" vertex="1" connectable="0" parent="u54jU0PMI1pxLwhqkPNv-84">
          <mxGeometry x="0.1844" y="-1" relative="1" as="geometry">
            <mxPoint as="offset" />
          </mxGeometry>
        </mxCell>
        <mxCell id="u54jU0PMI1pxLwhqkPNv-82" value="rst_n" style="text;html=1;align=left;verticalAlign=middle;whiteSpace=wrap;rounded=0;spacingLeft=5;spacingRight=5;" vertex="1" parent="u54jU0PMI1pxLwhqkPNv-80">
          <mxGeometry y="160" width="60" height="30" as="geometry" />
        </mxCell>
        <mxCell id="u54jU0PMI1pxLwhqkPNv-88" value="" style="edgeStyle=orthogonalEdgeStyle;rounded=0;orthogonalLoop=1;jettySize=auto;html=1;entryDx=0;entryDy=0;endArrow=none;endFill=0;" edge="1" parent="1" target="u54jU0PMI1pxLwhqkPNv-87">
          <mxGeometry relative="1" as="geometry">
            <mxPoint x="1280" y="410" as="targetPoint" />
            <mxPoint x="1800" y="100" as="sourcePoint" />
            <Array as="points">
              <mxPoint x="1800" y="220" />
            </Array>
          </mxGeometry>
        </mxCell>
        <mxCell id="u54jU0PMI1pxLwhqkPNv-87" value="" style="shape=waypoint;sketch=0;fillStyle=solid;size=6;pointerEvents=1;points=[];fillColor=none;resizable=0;rotatable=0;perimeter=centerPerimeter;snapToPoint=1;" vertex="1" parent="1">
          <mxGeometry x="1790" y="90" width="20" height="20" as="geometry" />
        </mxCell>
      </root>
    </mxGraphModel>
  </diagram>
</mxfile>
